<?xml version="1.0" encoding="utf-8"?>
<!-- Generator: Adobe Illustrator 25.2.0, SVG Export Plug-In . SVG Version: 6.00 Build 0)  -->
<svg version="1.1" id="图层_1" xmlns="http://www.w3.org/2000/svg" xmlns:xlink="http://www.w3.org/1999/xlink" x="0px" y="0px"
	 viewBox="0 0 200 200" style="enable-background:new 0 0 200 200;" xml:space="preserve">
<style type="text/css">
	.st0{fill:#454A57;}
	.st1{fill:#FFABAB;}
	.st2{fill:#9AD665;}
</style>
<g>
	<path class="st0" d="M95.8,52.8c-1.9,0-3.5-1.6-3.5-3.5C92.3,34.8,84,23,73.8,23c-1.9,0-3.5-1.6-3.5-3.5s1.6-3.5,3.5-3.5
		c14.1,0,25.5,15,25.5,33.3C99.3,51.2,97.7,52.8,95.8,52.8z"/>
	<path class="st1" d="M118.2,50H72.1c-30,0-54.3,29.2-54.3,65.3s24.3,65.3,54.3,65.3c8.2,0,16-2.2,23.1-6.2c7,4,14.8,6.2,23.1,6.2
		c30,0,54.3-29.2,54.3-65.3S148.2,50,118.2,50L118.2,50z"/>
	<path class="st0" d="M118.2,184c-8,0-15.8-1.9-23.1-5.7c-7.3,3.8-15,5.7-23.1,5.7c-31.8,0-57.8-30.8-57.8-68.8s25.9-68.8,57.8-68.8
		h46.1c31.9,0,57.8,30.8,57.8,68.8S150.1,184,118.2,184L118.2,184z M95.2,170.4l1.7,1c6.7,3.8,13.9,5.7,21.3,5.7
		c28,0,50.8-27.7,50.8-61.8s-22.8-61.8-50.8-61.8H72.1c-28,0-50.8,27.7-50.8,61.8c0,34.1,22.8,61.8,50.8,61.8
		c7.4,0,14.6-1.9,21.3-5.7C93.4,171.3,95.2,170.4,95.2,170.4z"/>
	<path class="st0" d="M72.1,184c-31.9,0-57.8-30.8-57.8-68.8s25.9-68.8,57.8-68.8c1.9,0,3.5,1.6,3.5,3.5c0,1.9-1.6,3.5-3.5,3.5
		c-28,0-50.8,27.7-50.8,61.8c0,34.1,22.8,61.8,50.8,61.8s50.8-27.7,50.8-61.8c0-1.9,1.6-3.5,3.5-3.5c1.9,0,3.5,1.6,3.5,3.5
		C129.9,153.2,104,184,72.1,184z"/>
	<path class="st2" d="M186.8,101.4c-16.8,0-33.8-4.6-48.9-13.4c-17.5-10.1-31.4-25-39.5-42.3c2.5-0.2,4.9-0.3,7.4-0.3
		c16.8,0,33.8,4.6,48.9,13.4c17.5,10.1,31.4,25,39.5,42.3C191.8,101.4,189.3,101.4,186.8,101.4z"/>
	<path class="st0" d="M105.8,49c16.2,0,32.5,4.5,47.2,12.9c15.2,8.8,27.7,21.4,35.7,36c-0.6,0-1.2,0-1.9,0
		c-16.2,0-32.5-4.5-47.2-12.9c-15.2-8.8-27.7-21.4-35.7-36C104.5,49,105.1,49,105.8,49 M105.8,42c-4.2,0-8.4,0.3-12.5,0.8
		c7.8,19.1,22.5,36.5,42.9,48.3c16.3,9.4,33.8,13.9,50.7,13.9c4.2,0,8.4-0.3,12.5-0.8c-7.8-19.1-22.5-36.5-42.9-48.3
		C140.2,46.5,122.6,42,105.8,42z"/>
</g>
</svg>
